# xmcd
#
# Track frame offsets:
#  150
#  13523
#  28118
#  41535
#  55982
#  70704
#  84437
#  99780
#  112740
#  127855
#  141624
#  155014
#  169152
#  180710
#  192915
#  208067
#  222449
#  236249
#  250754
#  265187
#
# Disc length: 3726 seconds
#
# Revision: 2
# Processed by: cddbd v1.5PL3 Copyright (c) Steve Scherf et al.
# Submitted via: KiC 3.1 - (C) 1996-1999 Alwin Hoogerdijk
#
DISCID=180e8c14
DTITLE=Billie Holiday - I Love You Porgy [CD1)
DYEAR=1900
DGENRE=
TTITLE0=(I Love You) Porgy
TTITLE1=I'll Look Around
TTITLE2=I'll Get By
TTITLE3=Baby I Don't Cry Over You
TTITLE4=Keeps On a Rainin'
TTITLE5=The Blues Are Brewin'
TTITLE6=Don't Explain
TTITLE7=Guilty
TTITLE8='Taint Nobody's Business If I Do
TTITLE9=All of Me
TTITLE10=God Bless' The Child
TTITLE11=Good Morning Heartache
TTITLE12=Me, Myself And I
TTITLE13=You Better Go Now
TTITLE14=Weep No Moore
TTITLE15=Solitude
TTITLE16=On The Sunny Side Of The Street
TTITLE17=Easy Living
TTITLE18=As Time Goes By
TTITLE19=Deep Song
EXTD=TK 56
EXTT0=
EXTT1=
EXTT2=
EXTT3=
EXTT4=
EXTT5=
EXTT6=
EXTT7=
EXTT8=
EXTT9=
EXTT10=
EXTT11=
EXTT12=
EXTT13=
EXTT14=
EXTT15=
EXTT16=
EXTT17=
EXTT18=
EXTT19=
PLAYORDER=
